<svg display="none">
	<defs>
		<g id="img-instagram">
			<path xmlns="http://www.w3.org/2000/svg" fill="white" fill-opacity=".1" d="M44 22C44 28.0751 41.5376 33.5751 37.5564 37.5564C33.5751 41.5376 28.0751 44 22 44C15.9249 44 10.4249 41.5376 6.44365 37.5564C2.46243 33.5751 0 28.0751 0 22C0 15.9249 2.46243 10.4249 6.44365 6.44365C10.4249 2.46243 15.9249 0 22 0C28.0751 0 33.5751 2.46243 37.5564 6.44365C41.5376 10.4249 44 15.9249 44 22Z"/><g xmlns="http://www.w3.org/2000/svg" clip-path="url(#clip0)"><path fill="white" d="M31.9804 17.8801C31.9336 16.8174 31.7617 16.0868 31.5155 15.4537C31.2616 14.7818 30.8709 14.1801 30.359 13.68C29.8589 13.1721 29.2533 12.7774 28.5891 12.5274C27.9524 12.2813 27.2256 12.1094 26.1629 12.0626C25.0923 12.0118 24.7524 12 22.0371 12C19.3217 12 18.9818 12.0118 17.9152 12.0586C16.8525 12.1055 16.1219 12.2775 15.489 12.5235C14.8169 12.7774 14.2153 13.1681 13.7151 13.68C13.2072 14.1801 12.8127 14.7857 12.5626 15.4499C12.3164 16.0868 12.1446 16.8134 12.0977 17.8761C12.0469 18.9467 12.0351 19.2866 12.0351 22.002C12.0351 24.7173 12.0469 25.0572 12.0937 26.1239C12.1406 27.1865 12.3126 27.9171 12.5588 28.5502C12.8127 29.2221 13.2072 29.8238 13.7151 30.3239C14.2153 30.8318 14.8209 31.2265 15.485 31.4765C16.1219 31.7226 16.8485 31.8945 17.9114 31.9413C18.9779 31.9883 19.3179 31.9999 22.0333 31.9999C24.7486 31.9999 25.0885 31.9883 26.1552 31.9413C27.2178 31.8945 27.9484 31.7226 28.5813 31.4765C29.9254 30.9568 30.9881 29.8941 31.5078 28.5502C31.7538 27.9133 31.9258 27.1865 31.9726 26.1239C32.0195 25.0572 32.0312 24.7173 32.0312 22.002C32.0312 19.2866 32.0273 18.9467 31.9804 17.8801ZM30.1794 26.0457C30.1363 27.0225 29.9723 27.5499 29.8355 27.9015C29.4995 28.7728 28.8079 29.4643 27.9367 29.8004C27.585 29.9372 27.0538 30.1012 26.0808 30.1441C25.0259 30.1911 24.7096 30.2027 22.041 30.2027C19.3725 30.2027 19.0522 30.1911 18.0011 30.1441C17.0243 30.1012 16.4969 29.9372 16.1453 29.8004C15.7117 29.6402 15.317 29.3862 14.9967 29.0541C14.6646 28.7298 14.4106 28.3391 14.2504 27.9055C14.1136 27.5539 13.9496 27.0225 13.9067 26.0497C13.8597 24.9948 13.8481 24.6783 13.8481 22.0097C13.8481 19.3412 13.8597 19.0209 13.9067 17.9699C13.9496 16.9932 14.1136 16.4657 14.2504 16.1141C14.4106 15.6804 14.6646 15.2859 15.0006 14.9654C15.3248 14.6333 15.7155 14.3793 16.1492 14.2192C16.5009 14.0825 17.0323 13.9184 18.0051 13.8754C19.06 13.8285 19.3765 13.8168 22.0449 13.8168C24.7173 13.8168 25.0337 13.8285 26.0848 13.8754C27.0615 13.9184 27.589 14.0825 27.9406 14.2192C28.3742 14.3793 28.7689 14.6333 29.0892 14.9654C29.4213 15.2897 29.6753 15.6804 29.8355 16.1141C29.9723 16.4657 30.1363 16.997 30.1794 17.9699C30.2262 19.0248 30.238 19.3412 30.238 22.0097C30.238 24.6783 30.2262 24.9908 30.1794 26.0457Z"/><path fill="white" d="M22.0371 16.8641C19.2007 16.8641 16.8994 19.1653 16.8994 22.0019C16.8994 24.8384 19.2007 27.1396 22.0371 27.1396C24.8737 27.1396 27.1748 24.8384 27.1748 22.0019C27.1748 19.1653 24.8737 16.8641 22.0371 16.8641ZM22.0371 25.3346C20.197 25.3346 18.7044 23.8421 18.7044 22.0019C18.7044 20.1616 20.197 18.6691 22.0371 18.6691C23.8774 18.6691 25.3698 20.1616 25.3698 22.0019C25.3698 23.8421 23.8774 25.3346 22.0371 25.3346Z"/><path fill="white" d="M28.5775 16.6611C28.5775 17.3235 28.0405 17.8605 27.378 17.8605C26.7156 17.8605 26.1785 17.3235 26.1785 16.6611C26.1785 15.9986 26.7156 15.4617 27.378 15.4617C28.0405 15.4617 28.5775 15.9986 28.5775 16.6611Z"/></g><defs xmlns="http://www.w3.org/2000/svg"><clipPath id="clip0"><path fill="white" d="M0 0H20V20H0z" transform="translate(12 12)"/></clipPath></defs>
		</g>
		<g id="img-twitter">
			<path xmlns="http://www.w3.org/2000/svg" fill="#2196F3" d="M44 22C44 28.0751 41.5376 33.5751 37.5564 37.5564C33.5751 41.5376 28.0751 44 22 44C15.9249 44 10.4249 41.5376 6.44365 37.5564C2.46243 33.5751 0 28.0751 0 22C0 15.9249 2.46243 10.4249 6.44365 6.44365C10.4249 2.46243 15.9249 0 22 0C28.0751 0 33.5751 2.46243 37.5564 6.44365C41.5376 10.4249 44 15.9249 44 22Z"/><g xmlns="http://www.w3.org/2000/svg" clip-path="url(#clip0)"><path fill="white" d="M32 15.7988C31.2563 16.125 30.4637 16.3412 29.6375 16.4462C30.4875 15.9388 31.1363 15.1412 31.4412 14.18C30.6488 14.6525 29.7738 14.9863 28.8412 15.1725C28.0887 14.3713 27.0162 13.875 25.8462 13.875C23.5763 13.875 21.7487 15.7175 21.7487 17.9763C21.7487 18.3012 21.7762 18.6137 21.8438 18.9112C18.435 18.745 15.4188 17.1113 13.3925 14.6225C13.0387 15.2363 12.8313 15.9388 12.8313 16.695C12.8313 18.115 13.5625 19.3737 14.6525 20.1025C13.9937 20.09 13.3475 19.8988 12.8 19.5975C12.8 19.61 12.8 19.6262 12.8 19.6425C12.8 21.635 14.2212 23.29 16.085 23.6712C15.7512 23.7625 15.3875 23.8062 15.01 23.8062C14.7475 23.8062 14.4825 23.7913 14.2337 23.7362C14.765 25.36 16.2725 26.5538 18.065 26.5925C16.67 27.6838 14.8988 28.3412 12.9813 28.3412C12.645 28.3412 12.3225 28.3263 12 28.285C13.8162 29.4563 15.9688 30.125 18.29 30.125C25.835 30.125 29.96 23.875 29.96 18.4575C29.96 18.2762 29.9538 18.1013 29.945 17.9275C30.7588 17.35 31.4425 16.6288 32 15.7988Z"/></g><defs xmlns="http://www.w3.org/2000/svg"><clipPath id="clip0"><path fill="white" d="M0 0H20V20H0z" transform="translate(12 12)"/></clipPath></defs>
		</g>
		<g id="img-facebook">
			<path xmlns="http://www.w3.org/2000/svg" fill="white" fill-opacity=".1" d="M44 22C44 28.0751 41.5376 33.5751 37.5564 37.5564C33.5751 41.5376 28.0751 44 22 44C15.9249 44 10.4249 41.5376 6.44365 37.5564C2.46243 33.5751 0 28.0751 0 22C0 15.9249 2.46243 10.4249 6.44365 6.44365C10.4249 2.46243 15.9249 0 22 0C28.0751 0 33.5751 2.46243 37.5564 6.44365C41.5376 10.4249 44 15.9249 44 22Z"/><g xmlns="http://www.w3.org/2000/svg" clip-path="url(#clip0)"><path fill="white" d="M25.3308 15.3208H27.1567V12.1408C26.8417 12.0975 25.7583 12 24.4967 12C21.8642 12 20.0608 13.6558 20.0608 16.6992V19.5H17.1558V23.055H20.0608V32H23.6225V23.0558H26.41L26.8525 19.5008H23.6217V17.0517C23.6225 16.0242 23.8992 15.3208 25.3308 15.3208Z"/></g><defs xmlns="http://www.w3.org/2000/svg"><clipPath id="clip0"><path fill="white" d="M0 0H20V20H0z" transform="translate(12 12)"/></clipPath></defs>
		</g>
		<g id="img-linkedin">
			<path xmlns="http://www.w3.org/2000/svg" fill="white" fill-opacity=".1" d="M44 22C44 28.0751 41.5376 33.5751 37.5564 37.5564C33.5751 41.5376 28.0751 44 22 44C15.9249 44 10.4249 41.5376 6.44365 37.5564C2.46243 33.5751 0 28.0751 0 22C0 15.9249 2.46243 10.4249 6.44365 6.44365C10.4249 2.46243 15.9249 0 22 0C28.0751 0 33.5751 2.46243 37.5564 6.44365C41.5376 10.4249 44 15.9249 44 22Z"/><g xmlns="http://www.w3.org/2000/svg" clip-path="url(#clip0)"><path fill="white" d="M31.995 32.0001V31.9993H32V24.6643C32 21.0759 31.2275 18.3118 27.0325 18.3118C25.0158 18.3118 23.6625 19.4184 23.11 20.4676H23.0517V18.6468H19.0742V31.9993H23.2158V25.3876C23.2158 23.6468 23.5458 21.9634 25.7017 21.9634C27.8258 21.9634 27.8575 23.9501 27.8575 25.4993V32.0001H31.995Z"/><path fill="white" d="M12.33 18.6475H16.4767V32H12.33V18.6475Z"/><path fill="white" d="M14.4017 12C13.0758 12 12 13.0758 12 14.4017C12 15.7275 13.0758 16.8258 14.4017 16.8258C15.7275 16.8258 16.8033 15.7275 16.8033 14.4017C16.8025 13.0758 15.7267 12 14.4017 12V12Z"/></g><defs xmlns="http://www.w3.org/2000/svg"><clipPath id="clip0"><path fill="white" d="M0 0H20V20H0z" transform="translate(12 12)"/></clipPath></defs>
		</g>
		<g id="img-envelope">
			<path xmlns="http://www.w3.org/2000/svg" fill="#757575" d="M14.5 0H1.50001C0.672854 0 0 0.672853 0 1.50001V10.5C0 11.3271 0.672854 12 1.50001 12H14.5C15.3271 12 16 11.3271 16 10.5V1.50001C16 0.672853 15.3271 0 14.5 0ZM14.5 0.999994C14.5679 0.999994 14.6325 1.01409 14.6916 1.0387L8 6.83838L1.30833 1.0387C1.36742 1.01412 1.43204 0.999994 1.49998 0.999994H14.5ZM14.5 11H1.50001C1.22414 11 0.999996 10.7759 0.999996 10.5V2.09521L7.67236 7.87792C7.76661 7.95944 7.8833 7.99999 8 7.99999C8.1167 7.99999 8.23339 7.95948 8.32764 7.87792L15 2.09521V10.5C15 10.7759 14.7759 11 14.5 11Z"/>
		</g>
		<g id="img-smartphone">
			<path xmlns="http://www.w3.org/2000/svg" fill="#757575" d="M8.5 0H1.5C0.672848 0 0 0.672848 0 1.5V14.5C0 15.3272 0.672848 16 1.5 16H8.5C9.32715 16 10 15.3272 10 14.5V1.5C10 0.672848 9.32715 0 8.5 0ZM1.5 1H8.5C8.77588 1 9 1.22412 9 1.5V12H1V1.5C1 1.22412 1.22412 1 1.5 1ZM8.5 15H1.5C1.22412 15 1 14.7759 1 14.5V13H9V14.5C9 14.7759 8.77588 15 8.5 15Z"/><path xmlns="http://www.w3.org/2000/svg" fill="#757575" d="M2.35355 13.7389C2.54882 13.9213 2.54882 14.2169 2.35355 14.3992C2.15828 14.5816 1.84172 14.5816 1.64645 14.3992C1.45118 14.2169 1.45118 13.9213 1.64645 13.7389C1.84172 13.5566 2.15828 13.5566 2.35355 13.7389Z"/>
		</g>
	</defs>
</svg>